<?xml version="1.0" standalone="no"?><!DOCTYPE svg PUBLIC "-//W3C//DTD SVG 1.1//EN" "http://www.w3.org/Graphics/SVG/1.1/DTD/svg11.dtd"><svg t="1589125697817" class="icon" viewBox="0 0 1024 1024" version="1.1" xmlns="http://www.w3.org/2000/svg" p-id="964" xmlns:xlink="http://www.w3.org/1999/xlink" width="200" height="200"><defs><style type="text/css"></style></defs><path d="M132.58 870.26h115.25a401.672 401.672 0 0 1 222.91 67.34l27.98 18.49a23.712 23.712 0 0 0 26.08 0l27.98-18.49a401.648 401.648 0 0 1 222.91-67.34h115.72c26.19 0 47.43-21.24 47.43-47.43v-711.4c0-26.19-21.23-47.43-47.43-47.43h-82.05a512.709 512.709 0 0 0-284.56 86.32 23.712 23.712 0 0 1-26.08 0A512.549 512.549 0 0 0 214.16 64h-81.57c-26.19 0-47.43 21.24-47.43 47.43v711.4c0 26.19 21.23 47.43 47.42 47.43z" fill="#DCDAC8" p-id="965"></path><path d="M891.42 64h-82.05a512.756 512.756 0 0 0-284.56 85.85 23.666 23.666 0 0 1-13.28 3.8v806.26c4.71 0.08 9.33-1.24 13.28-3.8l27.98-18.49a401.648 401.648 0 0 1 222.91-67.34h115.72c26.19 0 47.43-21.24 47.43-47.43v-711.4c0-26.19-21.23-47.43-47.43-47.43V64z" fill="#F2EFDC" p-id="966"></path></svg>